<?xml version="1.0" encoding="UTF-8" standalone="no"?>
<svg width="71px" height="71px" viewBox="0 0 71 71" version="1.1" xmlns="http://www.w3.org/2000/svg" xmlns:xlink="http://www.w3.org/1999/xlink">
  <!-- Generator: sketchtool 50.2 (55047) - http://www.bohemiancoding.com/sketch -->
  <title>2BA4886E-6698-4F52-B78F-5B20D9A9EEB1</title>
  <desc>Created with sketchtool.</desc>
  <defs></defs>
  <g id="web-patient" stroke="none" stroke-width="1" fill="none" fill-rule="evenodd">
    <g id="Home-KR-v2-blue-bg-newadd" transform="translate(-1050.000000, -346.000000)">
      <g id="Group-6" transform="translate(1001.000000, 317.000000)">
        <g id="Group-11" transform="translate(32.000000, 29.000000)">
          <g id="Group-10" transform="translate(17.000000, 0.000000)">
            <circle id="Oval" fill="#0098E1" cx="35.5" cy="35.5" r="35.5"></circle>
            <g id="Icons/add" transform="translate(24.000000, 24.000000)" fill="#FFFFFF">
              <path d="M24.5104167,10.875 L14.0625,10.875 L14.0625,0.427083333 C14.0625,0.329333333 13.9831667,0.25 13.8854167,0.25 L11.0520833,0.25 C10.9543333,0.25 10.875,0.329333333 10.875,0.427083333 L10.875,10.875 L0.427083333,10.875 C0.329333333,10.875 0.25,10.9543333 0.25,11.0520833 L0.25,13.8854167 C0.25,13.9831667 0.329333333,14.0625 0.427083333,14.0625 L10.875,14.0625 L10.875,24.5104167 C10.875,24.6081667 10.9543333,24.6875 11.0520833,24.6875 L13.8854167,24.6875 C13.9831667,24.6875 14.0625,24.6081667 14.0625,24.5104167 L14.0625,14.0625 L24.5104167,14.0625 C24.6081667,14.0625 24.6875,13.9831667 24.6875,13.8854167 L24.6875,11.0520833 C24.6875,10.9543333 24.6081667,10.875 24.5104167,10.875" id="Fill-1"></path>
            </g>
          </g>
        </g>
      </g>
    </g>
  </g>
</svg>